<svg width="17" height="14" viewBox="0 0 17 14" fill="none" xmlns="http://www.w3.org/2000/svg">
<path d="M0 7C0 3.13401 3.13401 0 7 0H9C13.4183 0 17 3.58172 17 8V14H7C3.13401 14 0 10.866 0 7V7Z" fill="#E3E4FF" fill-opacity="0.62"/>
<path d="M8.72461 3.38281V5.16992C7.68164 4.66602 6.66211 4.41406 5.66602 4.41406C4.70508 4.41406 3.96484 4.65625 3.44531 5.14062C2.92578 5.625 2.66602 6.24219 2.66602 6.99219C2.66602 7.71094 2.92578 8.29297 3.44531 8.73828C3.96484 9.18359 4.64844 9.40625 5.49609 9.40625C5.94531 9.40625 6.39648 9.30859 6.84961 9.11328V8.1582H5.66602V6.6582H8.89453V10.0039C8.57031 10.3281 8.07617 10.5938 7.41211 10.8008C6.75195 11.0039 6.09766 11.1055 5.44922 11.1055C4.02344 11.1055 2.85156 10.7129 1.93359 9.92773C1.01953 9.13867 0.5625 8.13672 0.5625 6.92188C0.5625 5.67969 1.01953 4.66797 1.93359 3.88672C2.85156 3.10156 4.03906 2.70898 5.49609 2.70898C6.69922 2.70898 7.77539 2.93359 8.72461 3.38281ZM12.1875 5.46875V5.94922C12.6523 5.55469 13.1797 5.35742 13.7695 5.35742C14.4883 5.35742 15.0957 5.62891 15.5918 6.17188C16.0879 6.71484 16.3359 7.38086 16.3359 8.16992C16.3359 9.05664 16.0859 9.76758 15.5859 10.3027C15.0898 10.8379 14.4316 11.1055 13.6113 11.1055C13.1035 11.1055 12.6289 10.9785 12.1875 10.7246V13.7598H10.4473V5.46875H12.1875ZM12.1875 7.03906V9.58203C12.5156 9.82422 12.8516 9.94531 13.1953 9.94531C13.6172 9.94531 13.9512 9.79492 14.1973 9.49414C14.4473 9.18945 14.5723 8.7793 14.5723 8.26367C14.5723 7.73633 14.457 7.32617 14.2266 7.0332C14 6.74023 13.6797 6.59375 13.2656 6.59375C12.918 6.59375 12.5586 6.74219 12.1875 7.03906Z" fill="#080C5C"/>
</svg>
