<svg width="47" height="12" viewBox="0 0 47 12" fill="none" xmlns="http://www.w3.org/2000/svg">
<path d="M8.16211 0.673828V2.46094C7.11914 1.95703 6.09961 1.70508 5.10352 1.70508C4.14258 1.70508 3.40234 1.94727 2.88281 2.43164C2.36328 2.91602 2.10352 3.5332 2.10352 4.2832C2.10352 5.00195 2.36328 5.58398 2.88281 6.0293C3.40234 6.47461 4.08594 6.69727 4.93359 6.69727C5.38281 6.69727 5.83398 6.59961 6.28711 6.4043V5.44922H5.10352V3.94922H8.33203V7.29492C8.00781 7.61914 7.51367 7.88477 6.84961 8.0918C6.18945 8.29492 5.53516 8.39648 4.88672 8.39648C3.46094 8.39648 2.28906 8.00391 1.37109 7.21875C0.457031 6.42969 0 5.42773 0 4.21289C0 2.9707 0.457031 1.95898 1.37109 1.17773C2.28906 0.392578 3.47656 0 4.93359 0C6.13672 0 7.21289 0.224609 8.16211 0.673828ZM9.86133 0.960938C9.86133 0.695313 9.95508 0.46875 10.1426 0.28125C10.3301 0.09375 10.5547 0 10.8164 0C11.082 0 11.3086 0.09375 11.4961 0.28125C11.6836 0.46875 11.7773 0.695313 11.7773 0.960938C11.7773 1.22266 11.6836 1.44922 11.4961 1.64062C11.3086 1.82812 11.082 1.92188 10.8164 1.92188C10.5547 1.92188 10.3301 1.82812 10.1426 1.64062C9.95508 1.44922 9.86133 1.22266 9.86133 0.960938ZM11.6953 2.75977V8.29102H9.95508V2.75977H11.6953ZM18.7441 0.105469V8.29102H17.0039V7.8457C16.5586 8.21289 16.0469 8.39648 15.4688 8.39648C14.7305 8.39648 14.1133 8.12305 13.6172 7.57617C13.125 7.0293 12.8789 6.34375 12.8789 5.51953C12.8789 4.67578 13.1289 3.98633 13.6289 3.45117C14.1328 2.91602 14.7773 2.64844 15.5625 2.64844C16.0508 2.64844 16.5312 2.76562 17.0039 3V0.105469H18.7441ZM17.0039 6.7793V4.13672C16.6875 3.92188 16.3633 3.81445 16.0312 3.81445C15.5938 3.81445 15.252 3.9668 15.0059 4.27148C14.7637 4.57617 14.6426 5.00391 14.6426 5.55469C14.6426 6.0625 14.7637 6.4707 15.0059 6.7793C15.248 7.08398 15.5703 7.23633 15.9727 7.23633C16.3281 7.23633 16.6719 7.08398 17.0039 6.7793ZM20.1152 0.960938C20.1152 0.695313 20.209 0.46875 20.3965 0.28125C20.584 0.09375 20.8086 0 21.0703 0C21.3359 0 21.5625 0.09375 21.75 0.28125C21.9375 0.46875 22.0312 0.695313 22.0312 0.960938C22.0312 1.22266 21.9375 1.44922 21.75 1.64062C21.5625 1.82812 21.3359 1.92188 21.0703 1.92188C20.8086 1.92188 20.584 1.82812 20.3965 1.64062C20.209 1.44922 20.1152 1.22266 20.1152 0.960938ZM21.9492 2.75977V8.29102H20.209V2.75977H21.9492ZM25.1367 2.75977V3.24023C25.6016 2.8457 26.1289 2.64844 26.7188 2.64844C27.4375 2.64844 28.0449 2.91992 28.541 3.46289C29.0371 4.00586 29.2852 4.67188 29.2852 5.46094C29.2852 6.34766 29.0352 7.05859 28.5352 7.59375C28.0391 8.12891 27.3809 8.39648 26.5605 8.39648C26.0527 8.39648 25.5781 8.26953 25.1367 8.01562V11.0508H23.3965V2.75977H25.1367ZM25.1367 4.33008V6.87305C25.4648 7.11523 25.8008 7.23633 26.1445 7.23633C26.5664 7.23633 26.9004 7.08594 27.1465 6.78516C27.3965 6.48047 27.5215 6.07031 27.5215 5.55469C27.5215 5.02734 27.4062 4.61719 27.1758 4.32422C26.9492 4.03125 26.6289 3.88477 26.2148 3.88477C25.8672 3.88477 25.5078 4.0332 25.1367 4.33008ZM33.2812 2.64844C34.1484 2.64844 34.8828 2.90234 35.4844 3.41016C36.0898 3.91797 36.3926 4.625 36.3926 5.53125C36.3926 6.44141 36.0859 7.14648 35.4727 7.64648C34.8594 8.14648 34.1289 8.39648 33.2812 8.39648C32.3633 8.39648 31.6113 8.13086 31.0254 7.59961C30.4434 7.06445 30.1523 6.37109 30.1523 5.51953C30.1523 4.65234 30.4492 3.95703 31.043 3.43359C31.6406 2.91016 32.3867 2.64844 33.2812 2.64844ZM33.2812 7.36523C34.1133 7.36523 34.5293 6.73828 34.5293 5.48438C34.5293 4.28516 34.1133 3.68555 33.2812 3.68555C32.8828 3.68555 32.5703 3.84375 32.3438 4.16016C32.1211 4.47656 32.0098 4.92969 32.0098 5.51953C32.0098 6.75 32.4336 7.36523 33.2812 7.36523ZM41.3672 3.05859V4.29492C40.7031 3.88867 40.0879 3.68555 39.5215 3.68555C39.1035 3.68555 38.8945 3.82812 38.8945 4.11328C38.8945 4.1875 38.9375 4.26172 39.0234 4.33594C39.1133 4.40625 39.4512 4.55859 40.0371 4.79297C40.623 5.02344 41.0371 5.29102 41.2793 5.5957C41.5215 5.90039 41.6426 6.23438 41.6426 6.59766C41.6426 7.17188 41.4473 7.61523 41.0566 7.92773C40.666 8.24023 40.1094 8.39648 39.3867 8.39648C38.6445 8.39648 37.9844 8.26172 37.4062 7.99219V6.76758C38.1172 7.08008 38.7129 7.23633 39.1934 7.23633C39.7559 7.23633 40.0371 7.09961 40.0371 6.82617C40.0371 6.7207 39.9844 6.62109 39.8789 6.52734C39.7773 6.43359 39.4297 6.27148 38.8359 6.04102C38.2422 5.81055 37.8359 5.55664 37.6172 5.2793C37.3984 5.00195 37.2891 4.69336 37.2891 4.35352C37.2891 3.84961 37.498 3.43945 37.916 3.12305C38.3379 2.80664 38.8926 2.64844 39.5801 2.64844C40.2402 2.64844 40.8359 2.78516 41.3672 3.05859ZM46.6582 2.75977V3.94922H44.6426V6.22852C44.6426 6.50195 44.7168 6.71875 44.8652 6.87891C45.0176 7.03516 45.2266 7.11328 45.4922 7.11328C45.8516 7.11328 46.2402 7.00586 46.6582 6.79102V8.05078C46.1035 8.28125 45.5664 8.39648 45.0469 8.39648C44.3672 8.39648 43.8398 8.2207 43.4648 7.86914C43.0898 7.51758 42.9023 7.00195 42.9023 6.32227V3.94922H42.1113V3.60938L44.4258 1.01953H44.6426V2.75977H46.6582Z" fill="#080C5C"/>
</svg>
